<svg xmlns="http://www.w3.org/2000/svg" viewBox="29.6 15.6 203.4 225.3">
  <circle cx="185" cy="265" r="9.2" fill="#181818" transform="rotate(62 308.1 29.2)"/>
  <circle cx="265" cy="265" r="9.2" fill="#181818" transform="rotate(62 258.4 99.2)"/>
  <circle cx="265" cy="305" r="9.2" fill="#181818" transform="rotate(62 244.5 65)"/>
  <g fill="#0cd02d">
    <path d="m41.7 42 9.5 18.7h-19L41.8 42Z"/>
    <path d="M39.3 58.7H45v126.9h-5.7z"/>
  </g>
  <g fill="#0486ff">
    <path d="m107.6 184.8-17 12.3-3-18.8 20 6.5Z"/>
    <path d="m90.7 185 1 5.6-39.2 6.2-1-5.6z"/>
  </g>
  <circle cx="185" cy="265" r="9.2" fill="#181818" transform="rotate(62 387.8 156)"/>
  <circle cx="265" cy="265" r="9.2" fill="#181818" transform="rotate(62 360.3 149.4)"/>
  <circle cx="265" cy="305" r="9.2" fill="#181818" transform="rotate(62 324.3 191.8)"/>
  <g fill="#0cd02d">
    <path d="m196 38.9 9.5 18.7h-19L196 39Z"/>
    <path d="M193.6 55.6h5.7v126.9h-5.7z"/>
  </g>
  <g fill="#0486ff">
    <path d="m211.4 128.8 6.1 20.2-18.6-3.3 12.5-16.9Z"/>
    <path d="m206.2 144.9 5.6 1-7 39-5.5-1z"/>
  </g>
  <path fill="#333" d="m48 214.3.4 3.5H48q-.5-1.3-1.2-2-1-1-2.6-1-2.1 0-3.3 1.8-1 1.4-1 3.3 0 1.6.7 2.9.6 1.3 1.7 2 1 .5 2 .5l1.3-.1 1.1-.5v-3.2l-.1-1-.4-.5-1-.1v-.3h4.4v.3h-.2q-.7 0-.9.4-.2.3-.2 1.2v3.4q-1 .5-1.9.7-1 .3-2 .3-3.4 0-5-2-1.3-1.6-1.3-3.6 0-1.5.7-2.8.8-1.6 2.3-2.5 1.3-.7 3-.7l1.1.1 1.4.4.7.2.2-.1q.2-.2.2-.6Zm6.2 3.6q1.8 0 2.8 1.3 1 1.1 1 2.6 0 1-.6 2-.4 1-1.3 1.5-.9.6-2 .6-1.7 0-2.7-1.4-.9-1.1-.9-2.5 0-1 .6-2 .5-1 1.3-1.6.9-.5 1.8-.5Zm-.2.6-1 .2q-.4.3-.6 1-.3.6-.3 1.6 0 1.6.7 2.8.6 1.2 1.7 1.2.8 0 1.4-.7.5-.6.5-2.2 0-2-.9-3.2-.6-.7-1.5-.7Zm8.8-.6q1.8 0 2.8 1.3 1 1.1 1 2.6 0 1-.6 2-.5 1-1.3 1.5-.9.6-2 .6-1.7 0-2.7-1.4-.9-1.1-.9-2.5 0-1 .5-2 .6-1 1.4-1.6.9-.5 1.8-.5Zm-.2.6-1 .2q-.4.3-.6 1-.3.6-.3 1.6 0 1.6.6 2.8.7 1.2 1.8 1.2.8 0 1.3-.7.6-.6.6-2.2 0-2-.9-3.2-.6-.7-1.5-.7Zm10.5 6.3q-.6.6-1.1.8-.5.3-1.2.3-1.2 0-2.2-1-.9-1-.9-2.7 0-1.6 1-3 1-1.3 2.7-1.3 1 0 1.7.7v-3l-.3-.4-.3-.1-.6.1v-.3l2.2-.9h.4v10.3l.2.4h1v.2l-2.2 1H73Zm0-.6v-3.8q0-.6-.3-1-.3-.5-.7-.7-.4-.3-.8-.3-.7 0-1.3.7-.8.8-.8 2.5 0 1.6.8 2.5.7.9 1.6.9.8 0 1.5-.8Zm14.8-4.2q1.2.2 1.8.8.8.7.8 1.8 0 .8-.5 1.6-.5.7-1.5 1-1 .4-2.8.4h-5.4v-.3h.4q.7 0 1-.4.2-.3.2-1.2v-7.2q0-1-.2-1.3-.3-.3-1-.3h-.4v-.3h5q1.3 0 2.1.2 1.3.3 2 1 .6.7.6 1.7 0 .9-.5 1.5-.5.7-1.6 1Zm-4.4-.5.8.1h.8q1.3 0 1.9-.2.6-.3 1-.8.2-.5.2-1.1 0-1-.8-1.7t-2.3-.7q-.9 0-1.6.2Zm0 5.3 2 .2q1.5 0 2.3-.6.8-.7.8-1.7 0-.6-.4-1.2-.3-.6-1.2-1-.8-.3-2-.3h-1.5Zm12.9-.3q-1.2 1-1.5 1-.5.3-1 .3-.8 0-1.3-.5-.5-.6-.5-1.4 0-.6.2-1 .4-.5 1.2-1 .9-.5 2.9-1.2v-.3q0-1.1-.4-1.6-.4-.4-1-.4t-1 .3l-.2.6v.5q0 .4-.2.6-.2.2-.5.2t-.5-.2q-.2-.2-.2-.6 0-.7.7-1.3.7-.6 2-.6 1.1 0 1.8.4.5.2.7.8l.1 1.4v3.8l.2.4h.5l.7-.6v.4q-1 1.3-1.8 1.3-.5 0-.7-.3-.2-.3-.2-1Zm0-.5v-2.8l-1.7.7-1 .7q-.2.4-.2.9 0 .6.3 1 .4.3.9.3.6 0 1.7-.8Zm8.2-6v2.5h-.3q-.3-1.2-.8-1.7-.5-.4-1.3-.4-.6 0-1 .3-.3.3-.3.7 0 .4.3.8l1 .7 1.3.6q1.7.8 1.7 2 0 1.1-.8 1.7-.8.7-1.8.7-.7 0-1.6-.3h-.5l-.3.1h-.2v-2.6h.2q.3 1.1 1 1.7.6.6 1.4.6.6 0 1-.4.3-.3.3-.8t-.4-.9q-.4-.4-1.6-1-1.2-.6-1.6-1-.4-.5-.4-1.2 0-1 .7-1.5.6-.7 1.7-.7l1 .2.6.1h.2l.2-.3Zm3.7-4q.3 0 .6.3.2.2.2.6 0 .3-.2.5-.3.3-.6.3-.4 0-.6-.3-.3-.2-.3-.5 0-.4.3-.6.2-.3.6-.3Zm.7 4v6.9l.4.3.7.1v.3h-3.7v-.3h.7l.4-.4v-5.4q0-.3-.2-.4h-.9l-.1-.3 2.3-.9Zm7 0v2.5h-.2q-.3-1.2-.8-1.7-.5-.4-1.3-.4-.6 0-1 .3-.3.3-.3.7l.2.8 1.1.7 1.2.6q1.7.8 1.7 2 0 1.1-.8 1.7-.8.7-1.7.7-.7 0-1.6-.3h-.5l-.3.1h-.3v-2.6h.3q.2 1.1.9 1.7.7.6 1.5.6.6 0 1-.4.3-.3.3-.8t-.4-.9q-.4-.4-1.6-1-1.3-.6-1.6-1-.4-.5-.4-1.2 0-1 .6-1.5.7-.7 1.7-.7l1.1.2.6.1h.2l.2-.3Zm55.8 2.2q1.2.2 1.8.7.8.8.8 1.9 0 .8-.6 1.6-.5.7-1.4 1-1 .4-2.9.4h-5.4v-.3h.5q.7 0 1-.4.2-.3.2-1.2v-7.2q0-1-.3-1.3-.3-.3-1-.3h-.4v-.4h5q1.3 0 2.2.2 1.2.3 1.9 1 .6.8.6 1.8 0 .8-.5 1.5-.5.6-1.5 1Zm-4.4-.5.7.1h.9q1.2 0 1.8-.2.6-.3 1-.8.3-.5.3-1.2 0-1-.8-1.6-.8-.7-2.4-.7-.8 0-1.5.2Zm0 5.3 2 .2q1.4 0 2.2-.6.8-.7.8-1.7 0-.6-.3-1.2-.4-.6-1.2-1-.8-.3-2-.3h-1.5Zm12.8-.3q-1.2 1-1.5 1-.4.3-1 .3-.7 0-1.3-.6-.5-.5-.5-1.4 0-.5.3-1t1.2-1l2.8-1.1v-.3q0-1.2-.4-1.6-.3-.4-1-.4-.6 0-.9.3-.3.3-.3.6v.5q0 .4-.2.6-.2.2-.5.2t-.5-.2q-.2-.2-.2-.6 0-.7.8-1.3.7-.6 2-.6 1 0 1.7.4.5.2.7.7.2.4.2 1.5v3.8q0 .3.2.3l.2.1h.2l.7-.6v.4q-1 1.3-1.8 1.3-.4 0-.6-.3-.3-.3-.3-1Zm0-.5v-2.8l-1.6.6q-.7.4-1 .8-.3.4-.3.9t.4 1q.4.3.8.3.7 0 1.7-.8Zm8.7.8-1.1.8q-.5.2-1.2.2-1.2 0-2.2-1-.9-1-.9-2.6t1-3q1-1.3 2.7-1.3 1 0 1.7.6v-2.9l-.3-.4-.3-.1-.6.1v-.3l2.2-.9h.4v10.3l.2.4h1v.2l-2.2 1h-.4Zm0-.6v-3.9q0-.5-.3-1l-.7-.7-.8-.2q-.7 0-1.3.7-.8.8-.8 2.4 0 1.7.8 2.6.7.8 1.6.8.8 0 1.5-.7Zm14.8-4.2q1.2.2 1.8.7.8.8.8 1.9 0 .8-.5 1.6-.5.7-1.5 1-1 .4-2.8.4H196v-.3h.4q.7 0 1-.4.2-.3.2-1.2v-7.2q0-1-.2-1.3-.3-.3-1-.3h-.4v-.4h5q1.3 0 2.1.2 1.3.3 2 1 .6.8.6 1.8 0 .8-.5 1.5-.5.6-1.6 1Zm-4.3-.5.7.1h.8q1.3 0 1.9-.2.6-.3 1-.8.2-.5.2-1.2 0-1-.8-1.6-.8-.7-2.3-.7-.9 0-1.5.2Zm0 5.3 1.9.2q1.5 0 2.3-.6.8-.7.8-1.7 0-.6-.4-1.2-.3-.6-1.1-1-.9-.3-2-.3h-1.5Zm12.8-.3q-1.2 1-1.5 1-.5.3-1 .3-.8 0-1.3-.6-.5-.5-.5-1.4l.2-1q.4-.5 1.2-1l2.9-1.1v-.3q0-1.2-.4-1.6-.4-.4-1-.4t-.9.3q-.3.3-.3.6v.5q0 .4-.2.6-.2.2-.5.2t-.5-.2q-.2-.2-.2-.6 0-.7.7-1.3.8-.6 2-.6 1.1 0 1.8.4.5.2.7.7l.1 1.5v3.8l.2.3.3.1h.2l.7-.6v.4q-1 1.3-1.8 1.3-.4 0-.7-.3-.2-.3-.2-1Zm0-.5v-2.8l-1.7.6-1 .8q-.2.4-.2.9t.4 1q.3.3.8.3.6 0 1.7-.8Zm8.2-6v2.5h-.3q-.3-1.2-.8-1.7-.5-.4-1.3-.4-.6 0-1 .3-.3.3-.3.7 0 .4.3.8l1 .7 1.3.5q1.7.8 1.7 2.2 0 1-.8 1.6-.8.6-1.8.6l-1.6-.2h-.5l-.3.1h-.2v-2.6h.2q.3 1.1 1 1.7.6.6 1.4.6.6 0 1-.4.3-.3.3-.8t-.4-1l-1.6-.9q-1.2-.6-1.6-1-.4-.5-.4-1.2 0-1 .7-1.6.6-.6 1.7-.6l1 .2.6.1h.2l.2-.3Zm3.7-4q.3 0 .6.3.2.2.2.5 0 .4-.2.6-.3.3-.6.3-.4 0-.6-.3-.3-.2-.3-.6 0-.3.3-.5.2-.3.6-.3Zm.7 4v6.9l.4.3.7.1v.3h-3.7v-.3h.8l.3-.4v-5.4q0-.3-.2-.4l-.3-.1-.6.1-.1-.3 2.3-.9Zm7 0v2.5h-.2q-.3-1.2-.8-1.7-.5-.4-1.3-.4-.6 0-1 .3-.3.3-.3.7l.2.8 1.1.7 1.2.5q1.7.8 1.7 2.2 0 1-.8 1.6-.8.6-1.7.6l-1.6-.2h-.5l-.3.1h-.3v-2.6h.3q.2 1.1.9 1.7.7.6 1.5.6.6 0 1-.4.3-.3.3-.8t-.4-1l-1.6-.9q-1.3-.6-1.6-1-.4-.5-.4-1.2 0-1 .6-1.6.7-.6 1.7-.6l1.1.2.6.1h.2l.2-.3Z"/>
  <path fill="#333" d="M20.6 227.6v.3q-1.2-.6-2-1.5-1.1-1.1-1.8-2.7-.6-1.6-.6-3.3 0-2.4 1.2-4.5 1.3-2 3.2-3v.4q-1 .6-1.6 1.5-.6 1-1 2.4-.3 1.5-.3 3 0 1.7.3 3.1.2 1.1.5 1.8t.8 1.3q.5.6 1.3 1.2Zm3.7-8.3v3.1q0 1 .3 1.3.3.4.9.4h.4v.3h-4.6v-.3h.4q.6 0 1-.5l.1-1.2v-7q0-1-.2-1.2-.3-.4-1-.4h-.3v-.3h4q1.4 0 2.2.3.9.3 1.4 1 .6.7.6 1.7 0 1.3-.9 2.2-.8.8-2.4.8h-.9l-1-.2Zm0-.5.8.1h.5q.9 0 1.5-.6t.6-1.6q0-.7-.3-1.3-.3-.6-.8-1-.5-.2-1.2-.2l-1 .1Zm8.4-2v1.7q1-1.7 2-1.7.4 0 .7.3.3.3.3.6t-.3.5q-.2.3-.5.3l-.6-.3q-.3-.3-.5-.3l-.3.2q-.4.3-.8 1v3.6q0 .6.2.9.1.2.4.3.2.2.7.2v.3h-3.7v-.3q.5 0 .8-.2.2-.1.3-.4v-5.1q0-.3-.2-.4l-.4-.1-.5.1-.1-.3 2.2-.9ZM38 213q.4 0 .6.2l.2.6-.2.6q-.2.2-.6.2l-.6-.2-.2-.6.2-.6.6-.2Zm.7 3.8v6.8l.4.4h.7v.4H36v-.3l.8-.1.2-.4q.2-.2.2-.9V220l-.1-1.6q0-.2-.2-.3l-.3-.1-.6.1v-.3l2.1-.9Zm1.6.2h3.5v.3h-.2q-.4 0-.5.2-.2.1-.2.4l.2.7 1.7 4 1.7-4.2.2-.7v-.2l-.3-.1h-.6v-.4h2.4v.3q-.4 0-.5.2-.3.2-.6.8l-2.5 6.3H44l-2.6-6.2-.3-.6-.4-.3-.6-.2Zm12.7 6.3q-1 .9-1.4 1-.4.2-.9.2-.8 0-1.2-.5-.5-.5-.5-1.4 0-.5.2-.9.3-.5 1.1-1l2.7-1.2v-.3q0-1-.3-1.5-.4-.4-1-.4-.5 0-.8.3-.3.3-.3.6v.5q0 .3-.2.5t-.5.2q-.3 0-.5-.2t-.2-.5q0-.7.7-1.3.8-.6 2-.6 1 0 1.6.3.5.3.7.8.2.4.2 1.4v3.8l.1.3.2.1h.3l.6-.6v.4q-.9 1.2-1.7 1.2-.4 0-.6-.3-.2-.2-.3-.9Zm0-.5V220l-1.5.7-1 .7q-.2.4-.2.9t.4 1q.3.3.7.3.7 0 1.6-.8Zm5.3-8.2v2.4H60v.6h-1.7v4.7q0 .8.2 1 .2.3.5.3t.5-.2q.3-.2.4-.5h.3q-.3.8-.8 1.2-.5.4-1 .4-.4 0-.7-.2-.4-.2-.6-.6l-.1-1.2v-4.9h-1.2v-.3q.4-.1 1-.6l.7-1 .5-1Zm3.6 5.2q0 1.6.8 2.6.8.9 2 .9.6 0 1.2-.4.5-.4.9-1.4l.2.2q-.2 1-1 2-.8.9-2 .9-1.3 0-2.3-1-.9-1-.9-2.8 0-1.9 1-3 1-1 2.4-1 1.2 0 2 .8t.8 2.2Zm0-.5h3.4l-.1-1q-.2-.4-.6-.7-.4-.2-.9-.2-.6 0-1.1.5-.6.5-.7 1.4Zm14.6-1 4 4 1.6 1.4 1.4.4v.3h-5.1v-.3q.4 0 .6-.2.2-.1.2-.3v-.4l-.5-.5-3.8-3.8v3.5l.1 1.1.4.4q.3.2.7.2h.4v.3h-4.7v-.3h.4q.7 0 1-.4.2-.3.2-1.3v-7l-.1-1-.3-.4-.8-.2h-.4v-.3h4.7v.3H76q-.4 0-.7.2-.3.1-.4.4v4.4q0-.2 1-1 2.4-2.2 2.9-3l.2-.5q0-.2-.2-.3-.1-.2-.5-.2H78v-.3h4v.3l-.6.1-.7.4q-.5.2-1 .8l-1.7 1.6Zm8.6 1.5q0 1.6.8 2.6.8.9 2 .9.6 0 1.2-.4.5-.4.8-1.4l.3.2q-.2 1-1 2-.8.9-2 .9-1.3 0-2.3-1-.9-1-.9-2.8 0-1.9 1-3 1-1 2.4-1 1.2 0 2 .8t.8 2.2Zm0-.5h3.4l-.1-1q-.2-.4-.6-.7-.4-.2-.9-.2-.6 0-1.2.5-.5.5-.6 1.4Zm5.7-2.3H94v.3h-.2q-.4 0-.5.2-.2.1-.2.4l.2.8 1.8 3.7 1.7-4 .1-.7v-.2l-.3-.1h-.4v-.4h2.3v.3l-.4.2q-.2 0-.4.3l-.2.6-3 7.3q-.4 1.1-1.1 1.7-.7.5-1.4.5-.5 0-.8-.3-.3-.2-.3-.6 0-.3.2-.5.3-.2.7-.2l.7.1.4.2q.2 0 .5-.3.3-.2.6-1l.5-1.2-2.6-5.6-.4-.6-.4-.3q-.1-.2-.5-.3Zm8.4-3.7v-.3q1.2.6 2 1.4 1.2 1.2 1.8 2.7.6 1.6.6 3.3 0 2.5-1.2 4.5t-3.2 3v-.3q1-.6 1.6-1.5.7-1 1-2.4.3-1.5.3-3 0-1.7-.3-3.1-.2-1.2-.5-1.8-.3-.7-.8-1.3-.5-.6-1.3-1.2Z" style="line-height:26.2076px" transform="matrix(.7535 0 0 .73261 32 74)"/>
  <path fill="#333" d="M20.6 227.6v.3q-1.2-.6-2-1.5-1.1-1.1-1.8-2.7-.6-1.6-.6-3.3 0-2.4 1.2-4.5 1.3-2 3.2-3v.4q-1 .6-1.6 1.5-.6 1-1 2.4-.3 1.5-.3 3 0 1.7.3 3.1.2 1.1.5 1.8t.8 1.3q.5.6 1.3 1.2Zm3.7-8.3v3.1q0 1 .3 1.3.3.4.9.4h.4v.3h-4.6v-.3h.4q.6 0 1-.5l.1-1.2v-7q0-1-.2-1.2-.3-.4-1-.4h-.3v-.3h4q1.4 0 2.2.3.9.3 1.4 1 .6.7.6 1.7 0 1.3-.9 2.2-.8.8-2.4.8h-.9l-1-.2Zm0-.5.8.1h.5q.9 0 1.5-.6t.6-1.6q0-.7-.3-1.3-.3-.6-.8-1-.5-.2-1.2-.2l-1 .1ZM37 217v6l.3.4.3.1.5-.1.2.3-2.2.9h-.4V223l-1.4 1.3q-.5.3-1 .3-.7 0-1.1-.4-.5-.3-.7-.9-.2-.5-.2-1.6v-4l-.4-.3h-.8v-.4h2.6v5q0 1 .3 1.3.4.3.9.3l.8-.2 1-.8v-4.2q0-.6-.2-.8-.2-.3-1-.3v-.3Zm3.8 1.3q1-1.5 2.3-1.5 1.1 0 2 1 .8 1 .8 2.6 0 2-1.3 3.2-1.1 1-2.5 1l-1.3-.2-1.3-.7v-9.2l-.3-.4h-.9v-.2l2.1-1h.4Zm0 .5v4.4l.8.6 1 .2q.7 0 1.3-.8.6-.8.6-2.3 0-1.4-.6-2.2-.6-.7-1.4-.7-.5 0-.9.2l-.8.6Zm8.7-5.8v10.7l.4.3h.8v.4H47v-.3l.7-.1q.2-.1.3-.4v-9.1q0-.3-.2-.4H47l-.1-.2 2.1-1Zm3.9 0 .6.2.2.6-.2.6-.6.2-.6-.2-.2-.6.2-.6q.2-.2.6-.2Zm.7 3.8v6.8l.4.4h.7v.4h-3.6v-.3l.7-.1q.2-.1.3-.4l.1-.9v-4.4l-.2-.3-.3-.1-.6.1-.1-.3 2.2-.9Zm8.2 4.8q-.3 1.4-1.2 2.2-.8.8-1.9.8-1.2 0-2.1-1-1-1.1-1-2.9 0-1.7 1-2.8 1-1 2.5-1 1.1 0 1.8.5.7.6.7 1.2 0 .3-.2.5t-.5.2q-.5 0-.8-.3l-.1-.7q0-.5-.4-.7-.2-.2-.7-.2-.8 0-1.3.5-.7.8-.7 2.1t.7 2.3q.6 1 1.7 1 .8 0 1.4-.5.5-.4.9-1.3Zm9.5-3.3 4 4q1 1 1.7 1.4l1.4.4v.3h-5.2v-.3q.5 0 .7-.2.2-.1.2-.3v-.4l-.6-.5-3.7-3.8v4.6l.4.4.8.2h.3v.3h-4.6v-.3h.4q.7 0 1-.4.2-.3.2-1.3v-7l-.1-1-.4-.4q-.3-.2-.7-.2h-.4v-.3h4.6v.3h-.3l-.8.2q-.2.1-.3.4l-.1 1v3.4l1-1q2.5-2.2 3-3l.2-.5q0-.2-.2-.3-.2-.2-.6-.2h-.2v-.3h4v.3l-.7.1-.7.4-1 .8-1.6 1.6Zm8.7 1.5q0 1.6.8 2.6.8.9 1.9.9.7 0 1.2-.4.6-.4 1-1.4l.2.2q-.2 1-1 2-.8.9-2 .9-1.4 0-2.3-1-1-1-1-2.8 0-1.9 1-3 1-1 2.5-1 1.2 0 2 .8t.8 2.2Zm0-.5h3.4q0-.7-.2-1-.2-.4-.6-.7l-.8-.2q-.7 0-1.2.5t-.6 1.4Zm5.6-2.3h3.4v.3h-.1q-.4 0-.6.2-.2.1-.2.4 0 .3.3.8l1.8 3.7 1.6-4q.2-.3.2-.7v-.2l-.3-.1h-.5v-.4h2.4v.3q-.3 0-.4.2-.2 0-.4.3l-.3.6-3 7.3q-.4 1.1-1 1.7-.8.5-1.4.5-.5 0-.8-.3-.3-.2-.3-.6 0-.3.2-.5t.6-.2l.7.1.4.2q.3 0 .6-.3l.5-1 .6-1.2-2.7-5.6-.4-.6-.3-.3-.6-.3Zm8.5-3.7v-.3q1.2.6 2 1.4 1.1 1.2 1.8 2.7.6 1.6.6 3.3 0 2.5-1.2 4.5t-3.2 3v-.3q1-.6 1.6-1.5.6-1 1-2.4.3-1.5.3-3 0-1.7-.3-3.1-.2-1.2-.5-1.8-.3-.7-.8-1.3-.5-.6-1.3-1.2Z" style="line-height:26.2076px" transform="matrix(.7535 0 0 .73261 155.8 73.9)"/>
</svg>