<svg xmlns="http://www.w3.org/2000/svg" viewBox="5 5 290 290" class="svgthemed">
  <circle cx="10" cy="10" r="5"/>
  <circle cx="50" cy="10" r="5"/>
  <circle cx="10" cy="45" r="5"/>
  <circle cx="50" cy="45" r="5"/>
  <circle cx="10" cy="80" r="5"/>
  <circle cx="50" cy="80" r="5"/>
  <circle cx="10" cy="115" r="5"/>
  <circle cx="50" cy="115" r="5"/>
  <circle cx="10" cy="150" r="5"/>
  <circle cx="50" cy="150" r="5"/>
  <circle cx="10" cy="185" r="5"/>
  <circle cx="50" cy="185" r="5"/>
  <circle cx="10" cy="220" r="5"/>
  <circle cx="50" cy="220" r="5"/>
  <circle cx="10" cy="255" r="5"/>
  <circle cx="50" cy="255" r="5"/>
  <circle cx="10" cy="290" r="5"/>
  <circle cx="50" cy="290" r="5"/>
  <circle cx="90" cy="10" r="5"/>
  <circle cx="130" cy="10" r="5"/>
  <circle cx="90" cy="45" r="5"/>
  <circle cx="130" cy="45" r="5"/>
  <circle cx="90" cy="80" r="5"/>
  <circle cx="130" cy="80" r="5"/>
  <circle cx="90" cy="115" r="5"/>
  <circle cx="130" cy="115" r="5"/>
  <circle cx="90" cy="150" r="5"/>
  <circle cx="130" cy="150" r="5"/>
  <circle cx="90" cy="185" r="5"/>
  <circle cx="130" cy="185" r="5"/>
  <circle cx="90" cy="220" r="5"/>
  <circle cx="130" cy="220" r="5"/>
  <circle cx="90" cy="255" r="5"/>
  <circle cx="130" cy="255" r="5"/>
  <circle cx="90" cy="290" r="5"/>
  <circle cx="130" cy="290" r="5"/>
  <circle cx="170" cy="10" r="5"/>
  <circle cx="210" cy="10" r="5"/>
  <circle cx="170" cy="45" r="5"/>
  <circle cx="210" cy="45" r="5"/>
  <circle cx="170" cy="80" r="5"/>
  <circle cx="210" cy="80" r="5"/>
  <circle cx="170" cy="115" r="5"/>
  <circle cx="210" cy="115" r="5"/>
  <circle cx="170" cy="150" r="5"/>
  <circle cx="210" cy="150" r="5"/>
  <circle cx="170" cy="185" r="5"/>
  <circle cx="210" cy="185" r="5"/>
  <circle cx="170" cy="220" r="5"/>
  <circle cx="210" cy="220" r="5"/>
  <circle cx="170" cy="255" r="5"/>
  <circle cx="210" cy="255" r="5"/>
  <circle cx="170" cy="290" r="5"/>
  <circle cx="210" cy="290" r="5"/>
  <circle cx="250" cy="10" r="5"/>
  <circle cx="290" cy="10" r="5"/>
  <circle cx="250" cy="45" r="5"/>
  <circle cx="290" cy="45" r="5"/>
  <circle cx="250" cy="80" r="5"/>
  <circle cx="290" cy="80" r="5"/>
  <circle cx="250" cy="115" r="5"/>
  <circle cx="290" cy="115" r="5"/>
  <circle cx="250" cy="150" r="5"/>
  <circle cx="290" cy="150" r="5"/>
  <circle cx="250" cy="185" r="5"/>
  <circle cx="290" cy="185" r="5"/>
  <circle cx="250" cy="220" r="5"/>
  <circle cx="290" cy="220" r="5"/>
  <circle cx="250" cy="255" r="5"/>
  <circle cx="290" cy="255" r="5"/>
  <circle cx="250" cy="290" r="5"/>
  <circle cx="290" cy="290" r="5"/>
</svg>